<svg width="24" height="24" viewBox="0 0 24 24" fill="none" xmlns="http://www.w3.org/2000/svg">
<path fill-rule="evenodd" clip-rule="evenodd" d="M12 3C10.8945 3 10 3.89453 10 5C10 6.10547 10.8945 7 12 7C13.1055 7 14 6.10547 14 5C14 3.89453 13.1055 3 12 3ZM6 10C4.89453 10 4 10.8945 4 12C4 13.1055 4.89453 14 6 14C7.10547 14 8 13.1055 8 12C8 10.8945 7.10547 10 6 10ZM10 20V18.2188C10 16.9102 8.18359 16 6 16C3.81641 16 2 16.9102 2 18.2188V20H10ZM18 10C16.8945 10 16 10.8945 16 12C16 13.1055 16.8945 14 18 14C19.1055 14 20 13.1055 20 12C20 10.8945 19.1055 10 18 10ZM22 20V18.2188C22 16.9102 20.1836 16 18 16C15.8164 16 14 16.9102 14 18.2188V20H22ZM13 9V11.5859L15.2426 13.8285L13.8284 15.2427L12.1211 13.5354L10.4138 15.2427L8.99955 13.8285L11 11.8281V9H13Z" fill="currentColor"/>
</svg>
