<svg width="24" height="24" viewBox="0 0 24 24" fill="none" xmlns="http://www.w3.org/2000/svg">
<g clip-path="url(#clip0)">
<path d="M20.01 14.8701L20.72 14.1601C21.11 13.7701 21.74 13.7701 22.13 14.1601L22.84 14.8701C23.23 15.2601 23.23 15.8901 22.84 16.2801L22.13 16.9901L20.01 14.8701ZM19.3 15.5801L14 20.8801V23.0001H16.12L21.42 17.7001L19.3 15.5801Z" fill="currentColor"/>
<path fill-rule="evenodd" clip-rule="evenodd" d="M4 3H20C21.1 3 22 3.9 22 5V12H20V5H4V19H12V21H4C2.9 21 2 20.1 2 19V5C2 3.9 2.9 3 4 3Z" fill="currentColor"/>
<path fill-rule="evenodd" clip-rule="evenodd" d="M19.41 8.42L17.99 7L14.82 10.17L13.41 8.75L12 10.16L14.82 13L19.41 8.42Z" fill="currentColor"/>
<path d="M10 7H5V9H10V7Z" fill="currentColor"/>
<path d="M10 11H5V13H10V11Z" fill="currentColor"/>
<path d="M10 15H5V17H10V15Z" fill="currentColor"/>
</g>
<defs>
<clipPath id="clip0">
<rect width="24" height="24" fill="white"/>
</clipPath>
</defs>
</svg>
