<svg width="24" height="24" viewBox="0 0 24 24" fill="none" xmlns="http://www.w3.org/2000/svg">
<path fill-rule="evenodd" clip-rule="evenodd" d="M8 7C8 4.79147 9.79147 3 12 3C14.2085 3 16 4.79147 16 7C16 9.20853 14.2085 11 12 11C9.79147 11 8 9.20853 8 7ZM12 5C10.896 5 10 5.89603 10 7C10 8.10397 10.896 9 12 9C13.104 9 14 8.10397 14 7C14 5.89603 13.104 5 12 5ZM12.9688 19.9453L11.875 19H5V18.5C5 17.6328 8.70703 16 12 16C13.0984 16 14.242 16.1835 15.2783 16.4574L16.9023 14.8555C15.2227 14.2891 13.3555 14 12 14C8.85938 14 3 15.5469 3 18.5V21H14.1836L12.9688 19.9453ZM18.7305 20.6582L22.3887 17L23.8027 18.4141L18.7441 23.502L18.7305 23.4883L18.7168 23.502L15 19.7578L16.4141 18.3418L18.7305 20.6582Z" fill="currentColor"/>
</svg>
