<svg width="24" height="24" viewBox="0 0 24 24" fill="none" xmlns="http://www.w3.org/2000/svg">
<path d="M20.0006 17.1701L16.6306 13.7901C17.2706 14.0101 17.8606 14.2701 18.4006 14.5501C19.3706 15.0601 19.9806 16.0701 20.0006 17.1701ZM21.1906 21.1901L19.7806 22.6001L17.1706 20.0001H4.00063V17.2201C4.00063 16.1001 4.61063 15.0701 5.61063 14.5601C6.90063 13.9001 8.48062 13.3401 10.2806 13.1101L1.39062 4.22006L2.80062 2.81006L21.1906 21.1901ZM15.1706 18.0001L12.1706 15.0001C12.1106 15.0001 12.0606 15.0001 12.0006 15.0001C9.63062 15.0001 7.71063 15.7301 6.52063 16.3401C6.20062 16.5001 6.00063 16.8401 6.00063 17.2201V18.0001H15.1706ZM12.0006 6.00006C13.1006 6.00006 14.0006 6.90006 14.0006 8.00006C14.0006 8.86006 13.4606 9.59006 12.7006 9.87006L14.1806 11.3501C15.2806 10.6401 16.0006 9.40006 16.0006 8.00006C16.0006 5.79006 14.2106 4.00006 12.0006 4.00006C10.6006 4.00006 9.36062 4.72006 8.65062 5.82006L10.1306 7.30006C10.4106 6.54006 11.1406 6.00006 12.0006 6.00006Z" fill="currentColor"/>
</svg>
