<svg width="24" height="24" viewBox="0 0 24 24" fill="none" xmlns="http://www.w3.org/2000/svg">
<path d="M12 4C10.3438 4 9 5.34375 9 7C9 8.65625 10.3438 10 12 10C13.6562 10 15 8.65625 15 7C15 5.34375 13.6562 4 12 4Z" stroke="currentColor" stroke-width="2" stroke-miterlimit="10"/>
<path d="M14 19H11.875H5V18.5C5 17.6328 8.70703 16 12 16C12.7725 16 13.5674 16.0908 14.3315 16.2399L16 14.5817C16.3041 14.6643 15.7038 14.4818 16 14.5817C14.58 14.1961 13.1164 14 12 14C8.85938 14 3 15.5469 3 18.5V21H14.1836L15.0918 20L14 19Z" fill="currentColor"/>
<path d="M17.4141 16.27L16 17.6841L18.3223 20.0063L16.0156 22.313L17.4297 23.729L19.7363 21.4204L22.0293 23.7134L23.4434 22.2993L21.1504 20.0063L23.4277 17.729L22.0137 16.313L19.7363 18.5923L17.4141 16.27Z" fill="currentColor"/>
</svg>
