<svg width="20" height="20" viewBox="0 0 20 20" fill="none" xmlns="http://www.w3.org/2000/svg">
<path d="M12.39 9L14 10.61V9H12.39ZM15 5H11V6.9H15C16.71 6.9 18.1 8.29 18.1 10C18.1 11.27 17.33 12.37 16.23 12.84L17.63 14.24C19.05 13.36 20 11.79 20 10C20 7.24 17.76 5 15 5ZM0 2.27L3.11 5.38C1.29 6.12 0 7.91 0 10C0 12.76 2.24 15 5 15H9V13.1H5C3.29 13.1 1.9 11.71 1.9 10C1.9 8.41 3.11 7.1 4.66 6.93L6.73 9H6V11H8.73L11 13.27V15H12.73L16.74 19.01L18.15 17.6L1.41 0.860001L0 2.27Z" fill="currentColor"/>
</svg>
